<?xml version="1.0" encoding="UTF-8"?>
<svg xmlns="http://www.w3.org/2000/svg" xmlns:xlink="http://www.w3.org/1999/xlink" width="250px" height="px" viewBox="0 0 250 250" version="1.1">
<g id="surface1">
<path style="fill-rule:nonzero;fill:rgb(90.196078%,90.196078%,90.196078%);fill-opacity:1;stroke-width:1.837924;stroke-linecap:butt;stroke-linejoin:miter;stroke:rgb(0%,0%,0%);stroke-opacity:1;stroke-miterlimit:4;" d="M 110.20011 405.00116 L 117.55011 600.45741 C 117.55011 600.45741 117.55011 604.13866 120.00011 604.13866 C 122.45011 604.13866 122.45011 600.45741 122.45011 600.45741 L 129.80011 405.00116 " transform="matrix(0.625,0,0,0.625,49.999931,-128.090569)"/>
<path style="fill-rule:nonzero;fill:rgb(90.196078%,90.196078%,90.196078%);fill-opacity:1;stroke-width:1.837924;stroke-linecap:butt;stroke-linejoin:miter;stroke:rgb(0%,0%,0%);stroke-opacity:1;stroke-miterlimit:4;" d="M 101.53136 468.14491 C 90.27511 492.74491 99.93761 512.84491 88.70011 534.31366 C 77.45636 555.78866 84.48136 573.47616 83.73136 583.32616 C 82.97511 593.17616 74.91886 595.91366 76.95011 598.20741 C 78.98761 600.49491 87.41261 595.95741 90.70011 582.86991 C 93.98761 569.78241 86.14386 562.24491 99.62511 535.91366 C 113.10636 509.58241 102.39386 497.70741 115.92511 474.20116 " transform="matrix(0.625,0,0,0.625,49.999931,-128.090569)"/>
<path style="fill-rule:nonzero;fill:rgb(90.196078%,90.196078%,90.196078%);fill-opacity:1;stroke-width:1.837924;stroke-linecap:butt;stroke-linejoin:miter;stroke:rgb(0%,0%,0%);stroke-opacity:1;stroke-miterlimit:4;" d="M 129.80011 405.00116 L 122.45011 209.53866 C 122.45011 209.53866 122.45011 205.86366 120.00011 205.86366 C 117.55011 205.86366 117.55011 209.53866 117.55011 209.53866 L 110.20011 405.00116 " transform="matrix(0.625,0,0,0.625,49.999931,-128.090569)"/>
<path style="fill-rule:nonzero;fill:rgb(90.196078%,90.196078%,90.196078%);fill-opacity:1;stroke-width:1.837924;stroke-linecap:butt;stroke-linejoin:miter;stroke:rgb(0%,0%,0%);stroke-opacity:1;stroke-miterlimit:4;" d="M 138.46886 341.85116 C 149.72511 317.25741 140.05636 297.15741 151.30011 275.68241 C 162.54386 254.21366 155.51886 236.52616 156.26886 226.67616 C 157.02511 216.81991 165.08136 214.08241 163.05011 211.79491 C 161.01261 209.50741 152.58761 214.04491 149.30011 227.13241 C 146.01261 240.21991 153.85636 247.75741 140.37511 274.08866 C 126.89386 300.41991 137.60636 312.28866 124.07511 335.79491 " transform="matrix(0.625,0,0,0.625,49.999931,-128.090569)"/>
<path style="fill-rule:nonzero;fill:rgb(90.196078%,90.196078%,90.196078%);fill-opacity:1;stroke-width:1.837924;stroke-linecap:butt;stroke-linejoin:miter;stroke:rgb(0%,0%,0%);stroke-opacity:1;stroke-miterlimit:4;" d="M 120.00011 395.19491 L -75.40614 402.55116 C -75.40614 402.55116 -79.08114 402.55116 -79.08114 405.00116 C -79.08114 407.45116 -75.40614 407.45116 -75.40614 407.45116 L 120.00011 414.80116 " transform="matrix(0.625,0,0,0.625,49.999931,-128.090569)"/>
<path style="fill-rule:nonzero;fill:rgb(90.196078%,90.196078%,90.196078%);fill-opacity:1;stroke-width:1.837924;stroke-linecap:butt;stroke-linejoin:miter;stroke:rgb(0%,0%,0%);stroke-opacity:1;stroke-miterlimit:4;" d="M 56.86886 386.52616 C 32.28136 375.26991 12.18761 384.93241 -9.28114 373.68866 C -30.74364 362.43866 -48.43114 369.46991 -58.27489 368.71991 C -68.12489 367.96366 -70.86239 359.90741 -73.14989 361.93866 C -75.43739 363.97616 -70.90614 372.40116 -57.81864 375.68866 C -44.73739 378.97616 -37.19989 371.13241 -10.87489 384.61991 C 15.45011 398.10116 27.31886 387.38866 50.81886 400.92616 " transform="matrix(0.625,0,0,0.625,49.999931,-128.090569)"/>
<path style="fill-rule:nonzero;fill:rgb(90.196078%,90.196078%,90.196078%);fill-opacity:1;stroke-width:1.837924;stroke-linecap:butt;stroke-linejoin:miter;stroke:rgb(0%,0%,0%);stroke-opacity:1;stroke-miterlimit:4;" d="M 120.00011 414.80116 L 315.40636 407.45116 C 315.40636 407.45116 319.08136 407.45116 319.08136 405.00116 C 319.08136 402.55116 315.40636 402.55116 315.40636 402.55116 L 120.00011 395.19491 " transform="matrix(0.625,0,0,0.625,49.999931,-128.090569)"/>
<path style="fill-rule:nonzero;fill:rgb(90.196078%,90.196078%,90.196078%);fill-opacity:1;stroke-width:1.837924;stroke-linecap:butt;stroke-linejoin:miter;stroke:rgb(0%,0%,0%);stroke-opacity:1;stroke-miterlimit:4;" d="M 183.13136 423.47616 C 207.71886 434.73241 227.81261 425.06366 249.28136 436.31366 C 270.74386 447.55741 288.43136 440.52616 298.27511 441.28241 C 308.12511 442.03241 310.86261 450.09491 313.15011 448.05741 C 315.43761 446.02616 310.90011 437.59491 297.81886 434.30741 C 284.73761 431.01991 277.20011 438.86991 250.87511 425.38241 C 224.55011 411.89491 212.68136 422.61366 189.18136 409.07616 " transform="matrix(0.625,0,0,0.625,49.999931,-128.090569)"/>
<path style="fill-rule:nonzero;fill:rgb(90.196078%,90.196078%,90.196078%);fill-opacity:1;stroke-width:1.837924;stroke-linecap:butt;stroke-linejoin:miter;stroke:rgb(0%,0%,0%);stroke-opacity:1;stroke-miterlimit:4;" d="M 113.06886 398.06991 L -19.90614 541.47616 C -19.90614 541.47616 -22.50614 544.07616 -20.76864 545.80741 C -19.03739 547.54491 -16.43739 544.94491 -16.43739 544.94491 L 126.93136 411.93241 " transform="matrix(0.625,0,0,0.625,49.999931,-128.090569)"/>
<path style="fill-rule:nonzero;fill:rgb(90.196078%,90.196078%,90.196078%);fill-opacity:1;stroke-width:1.837924;stroke-linecap:butt;stroke-linejoin:miter;stroke:rgb(0%,0%,0%);stroke-opacity:1;stroke-miterlimit:4;" d="M 62.30011 436.58866 C 36.95636 446.01991 29.58136 467.06991 6.45011 474.30116 C -16.68114 481.53241 -24.21239 499.00741 -31.70614 505.43866 C -39.20614 511.87616 -46.83739 508.10741 -47.01864 511.16991 C -47.19989 514.22616 -38.03114 516.97616 -26.45614 510.04491 C -14.88114 503.11991 -15.09989 492.23866 13.05011 483.15741 C 41.19386 474.07616 42.01261 458.10116 68.20011 451.05116 " transform="matrix(0.625,0,0,0.625,49.999931,-128.090569)"/>
<path style="fill-rule:nonzero;fill:rgb(90.196078%,90.196078%,90.196078%);fill-opacity:1;stroke-width:1.837924;stroke-linecap:butt;stroke-linejoin:miter;stroke:rgb(0%,0%,0%);stroke-opacity:1;stroke-miterlimit:4;" d="M 126.93136 411.93241 L 259.90636 268.51991 C 259.90636 268.51991 262.50636 265.91991 260.76886 264.18866 C 259.03761 262.45741 256.43761 265.05741 256.43761 265.05741 L 113.06886 398.06991 " transform="matrix(0.625,0,0,0.625,49.999931,-128.090569)"/>
<path style="fill-rule:nonzero;fill:rgb(90.196078%,90.196078%,90.196078%);fill-opacity:1;stroke-width:1.837924;stroke-linecap:butt;stroke-linejoin:miter;stroke:rgb(0%,0%,0%);stroke-opacity:1;stroke-miterlimit:4;" d="M 177.70011 373.41366 C 203.04386 363.98241 210.41886 342.93241 233.55011 335.70116 C 256.68136 328.46991 264.21261 310.98866 271.70636 304.55741 C 279.20636 298.12616 286.83761 301.88866 287.01886 298.83241 C 287.20011 295.77616 278.03136 293.02616 266.45636 299.95116 C 254.88136 306.88241 255.10011 317.75741 226.95011 326.84491 C 198.80636 335.92616 197.98761 351.89491 171.80011 358.94491 " transform="matrix(0.625,0,0,0.625,49.999931,-128.090569)"/>
<path style="fill-rule:nonzero;fill:rgb(90.196078%,90.196078%,90.196078%);fill-opacity:1;stroke-width:1.837924;stroke-linecap:butt;stroke-linejoin:miter;stroke:rgb(0%,0%,0%);stroke-opacity:1;stroke-miterlimit:4;" d="M 126.93136 398.06991 L -16.43739 265.05741 C -16.43739 265.05741 -19.03739 262.45741 -20.76864 264.18866 C -22.50614 265.91991 -19.90614 268.51991 -19.90614 268.51991 L 113.06886 411.93241 " transform="matrix(0.625,0,0,0.625,49.999931,-128.090569)"/>
<path style="fill-rule:nonzero;fill:rgb(90.196078%,90.196078%,90.196078%);fill-opacity:1;stroke-width:1.837924;stroke-linecap:butt;stroke-linejoin:miter;stroke:rgb(0%,0%,0%);stroke-opacity:1;stroke-miterlimit:4;" d="M 88.41886 347.28241 C 78.99386 321.93241 57.95011 314.55741 50.71886 291.41991 C 43.49386 268.28241 26.01886 260.75116 19.58761 253.25116 C 13.15636 245.75116 16.91886 238.11366 13.86261 237.93866 C 10.80636 237.75741 8.05636 246.92616 14.98136 258.50116 C 21.90636 270.08241 32.78136 269.86366 41.86261 298.01991 C 50.94386 326.17616 66.91261 326.98866 73.96261 353.18241 " transform="matrix(0.625,0,0,0.625,49.999931,-128.090569)"/>
<path style="fill-rule:nonzero;fill:rgb(90.196078%,90.196078%,90.196078%);fill-opacity:1;stroke-width:1.837924;stroke-linecap:butt;stroke-linejoin:miter;stroke:rgb(0%,0%,0%);stroke-opacity:1;stroke-miterlimit:4;" d="M 113.06886 411.93241 L 256.43761 544.94491 C 256.43761 544.94491 259.03761 547.54491 260.76886 545.80741 C 262.50636 544.07616 259.90636 541.47616 259.90636 541.47616 L 126.93136 398.06991 " transform="matrix(0.625,0,0,0.625,49.999931,-128.090569)"/>
<path style="fill-rule:nonzero;fill:rgb(90.196078%,90.196078%,90.196078%);fill-opacity:1;stroke-width:1.837924;stroke-linecap:butt;stroke-linejoin:miter;stroke:rgb(0%,0%,0%);stroke-opacity:1;stroke-miterlimit:4;" d="M 151.58136 462.71366 C 161.00636 488.06991 182.05011 495.44491 189.28136 518.58241 C 196.50636 541.71366 213.98136 549.25116 220.41261 556.75116 C 226.84386 564.25116 223.08136 571.88241 226.13761 572.06366 C 229.19386 572.24491 231.94386 563.07616 225.01886 551.49491 C 218.09386 539.91991 207.21886 540.13866 198.13761 511.98241 C 189.05636 483.82616 173.08761 483.00741 166.03761 456.81366 " transform="matrix(0.625,0,0,0.625,49.999931,-128.090569)"/>
<path style="fill-rule:nonzero;fill:rgb(90.196078%,90.196078%,90.196078%);fill-opacity:1;stroke-width:1.837924;stroke-linecap:butt;stroke-linejoin:miter;stroke:rgb(0%,0%,0%);stroke-opacity:1;stroke-miterlimit:4;" d="M 110.94386 401.25116 L 42.95636 584.64491 C 42.95636 584.64491 41.55011 588.03866 43.81261 588.97616 C 46.08136 589.91366 47.48761 586.51991 47.48761 586.51991 L 129.05636 408.75116 " transform="matrix(0.625,0,0,0.625,49.999931,-128.090569)"/>
<path style="fill-rule:nonzero;fill:rgb(90.196078%,90.196078%,90.196078%);fill-opacity:1;stroke-width:1.837924;stroke-linecap:butt;stroke-linejoin:miter;stroke:rgb(0%,0%,0%);stroke-opacity:1;stroke-miterlimit:4;" d="M 78.77511 456.26991 C 58.96886 474.68866 60.20636 496.95741 41.60636 512.48866 C 23.00636 528.01991 22.73136 547.05741 18.26886 555.86991 C 13.80011 564.68241 5.31261 564.12616 6.31261 567.01991 C 7.31886 569.91366 16.83761 568.94491 24.88136 558.11366 C 32.92511 547.28241 28.56261 537.31366 51.08761 518.15116 C 73.61886 498.98241 68.26261 483.91366 89.76261 467.37616 " transform="matrix(0.625,0,0,0.625,49.999931,-128.090569)"/>
<path style="fill-rule:nonzero;fill:rgb(90.196078%,90.196078%,90.196078%);fill-opacity:1;stroke-width:1.837924;stroke-linecap:butt;stroke-linejoin:miter;stroke:rgb(0%,0%,0%);stroke-opacity:1;stroke-miterlimit:4;" d="M 129.05636 408.75116 L 197.04386 225.35741 C 197.04386 225.35741 198.45011 221.95741 196.18761 221.01991 C 193.91886 220.08241 192.51261 223.48241 192.51261 223.48241 L 110.94386 401.25116 " transform="matrix(0.625,0,0,0.625,49.999931,-128.090569)"/>
<path style="fill-rule:nonzero;fill:rgb(90.196078%,90.196078%,90.196078%);fill-opacity:1;stroke-width:1.837924;stroke-linecap:butt;stroke-linejoin:miter;stroke:rgb(0%,0%,0%);stroke-opacity:1;stroke-miterlimit:4;" d="M 161.22511 353.73241 C 181.03136 335.31366 179.78761 313.04491 198.39386 297.51366 C 216.99386 281.97616 217.26886 262.94491 221.73136 254.13241 C 226.20011 245.31991 234.68761 245.87616 233.68761 242.98241 C 232.68136 240.08866 223.16261 241.05116 215.11886 251.88866 C 207.07511 262.71991 211.43761 272.68241 188.91261 291.85116 C 166.38136 311.01991 171.73761 326.08866 150.23761 342.62616 " transform="matrix(0.625,0,0,0.625,49.999931,-128.090569)"/>
<path style="fill-rule:nonzero;fill:rgb(90.196078%,90.196078%,90.196078%);fill-opacity:1;stroke-width:1.837924;stroke-linecap:butt;stroke-linejoin:miter;stroke:rgb(0%,0%,0%);stroke-opacity:1;stroke-miterlimit:4;" d="M 123.75011 395.94491 L -59.59364 327.93866 C -59.59364 327.93866 -62.98739 326.53241 -63.92489 328.79491 C -64.86239 331.05741 -61.46864 332.46366 -61.46864 332.46366 L 116.25011 414.05741 " transform="matrix(0.625,0,0,0.625,49.999931,-128.090569)"/>
<path style="fill-rule:nonzero;fill:rgb(90.196078%,90.196078%,90.196078%);fill-opacity:1;stroke-width:1.837924;stroke-linecap:butt;stroke-linejoin:miter;stroke:rgb(0%,0%,0%);stroke-opacity:1;stroke-miterlimit:4;" d="M 68.74386 363.76366 C 50.33136 343.95116 28.06886 345.19491 12.53761 326.58241 C -2.98739 307.97616 -22.01864 307.70741 -30.82489 303.23866 C -39.63739 298.76991 -39.08114 290.27616 -41.97489 291.28241 C -44.86864 292.28866 -43.89989 301.80741 -33.06864 309.85116 C -22.24364 317.90116 -12.28114 313.53241 6.88136 336.06991 C 26.04386 358.60741 41.10636 353.25116 57.64386 374.75116 " transform="matrix(0.625,0,0,0.625,49.999931,-128.090569)"/>
<path style="fill-rule:nonzero;fill:rgb(90.196078%,90.196078%,90.196078%);fill-opacity:1;stroke-width:1.837924;stroke-linecap:butt;stroke-linejoin:miter;stroke:rgb(0%,0%,0%);stroke-opacity:1;stroke-miterlimit:4;" d="M 116.25011 414.05741 L 299.59386 482.06366 C 299.59386 482.06366 302.98761 483.46991 303.92511 481.20741 C 304.86261 478.93866 301.46886 477.53241 301.46886 477.53241 L 123.75011 395.94491 " transform="matrix(0.625,0,0,0.625,49.999931,-128.090569)"/>
<path style="fill-rule:nonzero;fill:rgb(90.196078%,90.196078%,90.196078%);fill-opacity:1;stroke-width:1.837924;stroke-linecap:butt;stroke-linejoin:miter;stroke:rgb(0%,0%,0%);stroke-opacity:1;stroke-miterlimit:4;" d="M 171.25636 446.23241 C 189.66886 466.04491 211.93136 464.80741 227.45636 483.41366 C 242.98761 502.01991 262.01886 502.29491 270.82511 506.76366 C 279.63761 511.22616 279.08136 519.71991 281.97511 518.71991 C 284.86886 517.71366 283.90011 508.19491 273.06886 500.14491 C 262.24386 492.10116 252.28136 496.46366 233.11886 473.92616 C 213.95636 451.39491 198.89386 456.75116 182.35636 435.24491 " transform="matrix(0.625,0,0,0.625,49.999931,-128.090569)"/>
<path style="fill-rule:nonzero;fill:rgb(90.196078%,90.196078%,90.196078%);fill-opacity:1;stroke-width:1.837924;stroke-linecap:butt;stroke-linejoin:miter;stroke:rgb(0%,0%,0%);stroke-opacity:1;stroke-miterlimit:4;" d="M 116.25011 395.94491 L -61.46864 477.53241 C -61.46864 477.53241 -64.86239 478.93866 -63.92489 481.20741 C -62.98739 483.46991 -59.59364 482.06366 -59.59364 482.06366 L 123.75011 414.05741 " transform="matrix(0.625,0,0,0.625,49.999931,-128.090569)"/>
<path style="fill-rule:nonzero;fill:rgb(90.196078%,90.196078%,90.196078%);fill-opacity:1;stroke-width:1.837924;stroke-linecap:butt;stroke-linejoin:miter;stroke:rgb(0%,0%,0%);stroke-opacity:1;stroke-miterlimit:4;" d="M 54.60636 412.09491 C 27.58136 411.10741 12.71886 427.73241 -11.41864 425.55741 C -35.54989 423.38241 -49.19989 436.65116 -58.58739 439.72616 C -67.97489 442.79491 -73.58739 436.39491 -74.92489 439.15116 C -76.25614 441.91366 -68.84364 447.95741 -55.49989 445.98866 C -42.14989 444.01991 -38.19364 433.88241 -8.71239 436.26991 C 20.76886 438.65116 27.63136 424.20741 54.52511 427.71991 " transform="matrix(0.625,0,0,0.625,49.999931,-128.090569)"/>
<path style="fill-rule:nonzero;fill:rgb(90.196078%,90.196078%,90.196078%);fill-opacity:1;stroke-width:1.837924;stroke-linecap:butt;stroke-linejoin:miter;stroke:rgb(0%,0%,0%);stroke-opacity:1;stroke-miterlimit:4;" d="M 123.75011 414.05741 L 301.46886 332.46366 C 301.46886 332.46366 304.86261 331.05741 303.92511 328.79491 C 302.98761 326.53241 299.59386 327.93866 299.59386 327.93866 L 116.25011 395.94491 " transform="matrix(0.625,0,0,0.625,49.999931,-128.090569)"/>
<path style="fill-rule:nonzero;fill:rgb(90.196078%,90.196078%,90.196078%);fill-opacity:1;stroke-width:1.837924;stroke-linecap:butt;stroke-linejoin:miter;stroke:rgb(0%,0%,0%);stroke-opacity:1;stroke-miterlimit:4;" d="M 185.39386 397.90116 C 212.41886 398.88866 227.28136 382.26991 251.41886 384.43866 C 275.55011 386.61366 289.20011 373.35116 298.58761 370.27616 C 307.97511 367.20116 313.58761 373.60116 314.91886 370.84491 C 316.25636 368.08866 308.84386 362.03866 295.50011 364.01366 C 282.15011 365.98241 278.19386 376.11366 248.71261 373.73241 C 219.23136 371.35116 212.36886 385.79491 185.47511 382.28241 " transform="matrix(0.625,0,0,0.625,49.999931,-128.090569)"/>
<path style="fill-rule:nonzero;fill:rgb(90.196078%,90.196078%,90.196078%);fill-opacity:1;stroke-width:1.837924;stroke-linecap:butt;stroke-linejoin:miter;stroke:rgb(0%,0%,0%);stroke-opacity:1;stroke-miterlimit:4;" d="M 129.05636 401.25116 L 47.48761 223.48241 C 47.48761 223.48241 46.08136 220.08241 43.81261 221.01991 C 41.55011 221.95741 42.95636 225.35741 42.95636 225.35741 L 110.94386 408.75116 " transform="matrix(0.625,0,0,0.625,49.999931,-128.090569)"/>
<path style="fill-rule:nonzero;fill:rgb(90.196078%,90.196078%,90.196078%);fill-opacity:1;stroke-width:1.837924;stroke-linecap:butt;stroke-linejoin:miter;stroke:rgb(0%,0%,0%);stroke-opacity:1;stroke-miterlimit:4;" d="M 112.90636 339.58866 C 113.89386 312.55741 97.27511 297.68866 99.45011 273.54491 C 101.61886 249.40116 88.35636 235.75116 85.28761 226.36366 C 82.21261 216.97616 88.61261 211.36366 85.85636 210.02616 C 83.10011 208.68866 77.05011 216.10741 79.02511 229.45116 C 80.99386 242.80116 91.12511 246.76366 88.73761 276.25116 C 86.35636 305.73866 100.80011 312.60741 97.28761 339.50741 " transform="matrix(0.625,0,0,0.625,49.999931,-128.090569)"/>
<path style="fill-rule:nonzero;fill:rgb(90.196078%,90.196078%,90.196078%);fill-opacity:1;stroke-width:1.837924;stroke-linecap:butt;stroke-linejoin:miter;stroke:rgb(0%,0%,0%);stroke-opacity:1;stroke-miterlimit:4;" d="M 110.94386 408.75116 L 192.51261 586.51991 C 192.51261 586.51991 193.91886 589.91366 196.18761 588.97616 C 198.45011 588.03866 197.04386 584.64491 197.04386 584.64491 L 129.05636 401.25116 " transform="matrix(0.625,0,0,0.625,49.999931,-128.090569)"/>
<path style="fill-rule:nonzero;fill:rgb(90.196078%,90.196078%,90.196078%);fill-opacity:1;stroke-width:1.837924;stroke-linecap:butt;stroke-linejoin:miter;stroke:rgb(0%,0%,0%);stroke-opacity:1;stroke-miterlimit:4;" d="M 127.09386 470.40741 C 126.10636 497.43866 142.72511 512.31366 140.55011 536.45116 C 138.38136 560.59491 151.64386 574.24491 154.71261 583.63866 C 157.78761 593.02616 151.38761 598.63866 154.14386 599.97616 C 156.90011 601.31366 162.95011 593.89491 160.97511 580.54491 C 159.00636 567.19491 148.87511 563.23866 151.25636 533.74491 C 153.64386 504.25741 139.20011 497.39491 142.71261 470.49491 " transform="matrix(0.625,0,0,0.625,49.999931,-128.090569)"/>
<path style=" stroke:none;fill-rule:nonzero;fill:rgb(0%,0%,0%);fill-opacity:1;" d="M 121.9375 125.035156 L 125 208.902344 L 128.0625 125.035156 "/>
<path style=" stroke:none;fill-rule:nonzero;fill:rgb(0%,0%,0%);fill-opacity:1;" d="M 115.394531 168.414062 C 109.9375 183.714844 115.6875 193.875 108.359375 206.84375 C 116.5 197.554688 111.132812 185.523438 118.246094 169.773438 "/>
<path style=" stroke:none;fill-rule:nonzero;fill:rgb(0%,0%,0%);fill-opacity:1;" d="M 122.835938 122.867188 L 65.714844 184.335938 L 127.164062 127.199219 "/>
<path style=" stroke:none;fill-rule:nonzero;fill:rgb(0%,0%,0%);fill-opacity:1;" d="M 122.171875 123.863281 L 92.914062 202.515625 L 127.828125 126.207031 "/>
<path style=" stroke:none;fill-rule:nonzero;fill:rgb(0%,0%,0%);fill-opacity:1;" d="M 99.53125 161.433594 C 88.636719 173.484375 90.058594 185.070312 78.328125 194.246094 C 89.402344 188.78125 89.046875 175.609375 101.640625 163.78125 "/>
<path style=" stroke:none;fill-rule:nonzero;fill:rgb(0%,0%,0%);fill-opacity:1;" d="M 128.0625 125.035156 L 125 41.167969 L 121.9375 125.035156 "/>
<path style=" stroke:none;fill-rule:nonzero;fill:rgb(0%,0%,0%);fill-opacity:1;" d="M 134.605469 81.65625 C 140.0625 66.351562 134.3125 56.195312 141.640625 43.226562 C 133.5 52.511719 138.867188 64.546875 131.753906 80.292969 "/>
<path style=" stroke:none;fill-rule:nonzero;fill:rgb(0%,0%,0%);fill-opacity:1;" d="M 125 121.972656 L 41.15625 125.035156 L 125 128.097656 "/>
<path style=" stroke:none;fill-rule:nonzero;fill:rgb(0%,0%,0%);fill-opacity:1;" d="M 81.632812 115.425781 C 66.335938 109.96875 56.179688 115.71875 43.214844 108.390625 C 52.496094 116.53125 64.527344 111.164062 80.273438 118.277344 "/>
<path style=" stroke:none;fill-rule:nonzero;fill:rgb(0%,0%,0%);fill-opacity:1;" d="M 87.542969 148.914062 C 72.867188 155.875 69.75 167.125 55.402344 171.113281 C 67.722656 170.304688 72.4375 158 88.597656 151.890625 "/>
<path style=" stroke:none;fill-rule:nonzero;fill:rgb(0%,0%,0%);fill-opacity:1;" d="M 127.164062 122.867188 L 65.714844 65.730469 L 122.835938 127.199219 "/>
<path style=" stroke:none;fill-rule:nonzero;fill:rgb(0%,0%,0%);fill-opacity:1;" d="M 101.125 87.566406 C 94.167969 72.886719 82.921875 69.769531 78.933594 55.417969 C 79.742188 67.742188 92.046875 72.457031 98.148438 88.621094 "/>
<path style=" stroke:none;fill-rule:nonzero;fill:rgb(0%,0%,0%);fill-opacity:1;" d="M 127.828125 126.207031 L 157.085938 47.550781 L 122.171875 123.863281 "/>
<path style=" stroke:none;fill-rule:nonzero;fill:rgb(0%,0%,0%);fill-opacity:1;" d="M 126.171875 122.203125 L 47.539062 92.941406 L 123.828125 127.863281 "/>
<path style=" stroke:none;fill-rule:nonzero;fill:rgb(0%,0%,0%);fill-opacity:1;" d="M 88.609375 99.558594 C 76.5625 88.660156 64.980469 90.082031 55.808594 78.351562 C 61.269531 89.425781 74.4375 89.074219 86.261719 101.671875 "/>
<path style=" stroke:none;fill-rule:nonzero;fill:rgb(0%,0%,0%);fill-opacity:1;" d="M 123.828125 122.203125 L 47.539062 157.128906 L 126.171875 127.863281 "/>
<path style=" stroke:none;fill-rule:nonzero;fill:rgb(0%,0%,0%);fill-opacity:1;" d="M 81.257812 132.757812 C 65.035156 133.570312 57.855469 142.769531 43.074219 140.964844 C 54.765625 144.933594 63.824219 135.367188 81.09375 135.914062 "/>
<path style=" stroke:none;fill-rule:nonzero;fill:rgb(0%,0%,0%);fill-opacity:1;" d="M 127.828125 123.863281 L 92.914062 47.550781 L 122.171875 126.207031 "/>
<path style=" stroke:none;fill-rule:nonzero;fill:rgb(0%,0%,0%);fill-opacity:1;" d="M 117.277344 81.28125 C 116.464844 65.054688 107.269531 57.871094 109.074219 43.085938 C 105.105469 54.777344 114.667969 63.84375 114.125 81.113281 "/>
<path style=" stroke:none;fill-rule:nonzero;fill:rgb(0%,0%,0%);fill-opacity:1;" d="M 125 128.097656 L 208.84375 125.035156 L 125 121.972656 "/>
<path style=" stroke:none;fill-rule:nonzero;fill:rgb(0%,0%,0%);fill-opacity:1;" d="M 168.367188 134.640625 C 183.664062 140.097656 193.820312 134.351562 206.785156 141.679688 C 197.503906 133.535156 185.472656 138.902344 169.726562 131.792969 "/>
<path style=" stroke:none;fill-rule:nonzero;fill:rgb(0%,0%,0%);fill-opacity:1;" d="M 127.164062 127.199219 L 184.285156 65.730469 L 122.835938 122.867188 "/>
<path style=" stroke:none;fill-rule:nonzero;fill:rgb(0%,0%,0%);fill-opacity:1;" d="M 162.457031 101.15625 C 177.132812 94.191406 180.25 82.945312 194.597656 78.957031 C 182.277344 79.765625 177.5625 92.070312 161.402344 98.175781 "/>
<path style=" stroke:none;fill-rule:nonzero;fill:rgb(0%,0%,0%);fill-opacity:1;" d="M 122.835938 127.199219 L 184.285156 184.335938 L 127.164062 122.867188 "/>
<path style=" stroke:none;fill-rule:nonzero;fill:rgb(0%,0%,0%);fill-opacity:1;" d="M 148.875 162.5 C 155.832031 177.179688 167.078125 180.296875 171.066406 194.652344 C 170.257812 182.328125 157.953125 177.613281 151.851562 161.449219 "/>
<path style=" stroke:none;fill-rule:nonzero;fill:rgb(0%,0%,0%);fill-opacity:1;" d="M 150.46875 88.632812 C 161.363281 76.585938 159.941406 65 171.671875 55.824219 C 160.597656 61.285156 160.953125 74.457031 148.359375 86.285156 "/>
<path style=" stroke:none;fill-rule:nonzero;fill:rgb(0%,0%,0%);fill-opacity:1;" d="M 123.828125 127.863281 L 202.460938 157.128906 L 126.171875 122.203125 "/>
<path style=" stroke:none;fill-rule:nonzero;fill:rgb(0%,0%,0%);fill-opacity:1;" d="M 161.390625 150.511719 C 173.4375 161.410156 185.015625 159.984375 194.191406 171.71875 C 188.730469 160.640625 175.5625 160.996094 163.738281 148.398438 "/>
<path style=" stroke:none;fill-rule:nonzero;fill:rgb(0%,0%,0%);fill-opacity:1;" d="M 126.171875 127.863281 L 202.460938 92.941406 L 123.828125 122.203125 "/>
<path style=" stroke:none;fill-rule:nonzero;fill:rgb(0%,0%,0%);fill-opacity:1;" d="M 168.742188 117.308594 C 184.964844 116.496094 192.144531 107.296875 206.925781 109.105469 C 195.234375 105.136719 186.175781 114.699219 168.90625 114.15625 "/>
<path style=" stroke:none;fill-rule:nonzero;fill:rgb(0%,0%,0%);fill-opacity:1;" d="M 122.171875 126.207031 L 157.085938 202.515625 L 127.828125 123.863281 "/>
<path style=" stroke:none;fill-rule:nonzero;fill:rgb(0%,0%,0%);fill-opacity:1;" d="M 132.722656 168.785156 C 133.535156 185.015625 142.730469 192.199219 140.925781 206.984375 C 144.894531 195.289062 135.332031 186.226562 135.875 168.953125 "/>
<path style="fill-rule:nonzero;fill:rgb(90.196078%,90.196078%,90.196078%);fill-opacity:1;stroke-width:1;stroke-linecap:butt;stroke-linejoin:miter;stroke:rgb(0%,0%,0%);stroke-opacity:1;stroke-miterlimit:4;" d="M 64.999175 0.00102738 C 64.999175 35.901032 35.899828 65.002527 0.0000897876 65.002527 C -35.899648 65.002527 -64.998995 35.901032 -64.998995 0.00102738 C -64.998995 -35.898977 -35.899648 -65.000472 0.0000897876 -65.000472 C 35.899828 -65.000472 64.999175 -35.898977 64.999175 0.00102738 Z M 64.999175 0.00102738 " transform="matrix(0.765696,0,0,0.765908,124.999931,125.034369)"/>
<path style=" stroke:none;fill-rule:nonzero;fill:rgb(0%,0%,0%);fill-opacity:1;" d="M 142.609375 112.015625 C 137.632812 112.015625 136.484375 113.164062 134.1875 115.078125 C 131.890625 116.992188 130.742188 116.609375 130.359375 116.992188 C 129.976562 117.375 130.359375 118.523438 131.125 118.140625 C 131.890625 117.757812 133.421875 116.992188 135.71875 115.078125 C 138.015625 113.164062 140.3125 113.164062 142.609375 113.164062 C 149.503906 113.164062 153.332031 118.90625 154.097656 118.523438 C 154.863281 118.140625 150.269531 112.015625 142.609375 112.015625 "/>
<path style=" stroke:none;fill-rule:nonzero;fill:rgb(0%,0%,0%);fill-opacity:1;" d="M 151.417969 118.523438 C 146.4375 113.164062 137.25 112.78125 133.421875 118.90625 L 134.953125 118.90625 C 138.78125 112.78125 147.96875 115.460938 148.734375 118.140625 L 148.734375 118.90625 "/>
<path style=" stroke:none;fill-rule:nonzero;fill:rgb(0%,0%,0%);fill-opacity:1;" d="M 145.289062 118.140625 C 145.289062 120.042969 143.746094 121.585938 141.84375 121.585938 C 139.941406 121.585938 138.398438 120.042969 138.398438 118.140625 C 138.398438 116.238281 139.941406 114.695312 141.84375 114.695312 C 143.746094 114.695312 145.289062 116.238281 145.289062 118.140625 Z M 145.289062 118.140625 "/>
<path style=" stroke:none;fill-rule:nonzero;fill:rgb(0%,0%,0%);fill-opacity:1;" d="M 133.421875 118.90625 C 137.25 122.355469 145.671875 122.738281 151.417969 118.523438 L 148.734375 118.140625 C 144.90625 122.355469 138.78125 121.972656 134.953125 118.90625 L 134.953125 118.140625 "/>
<path style=" stroke:none;fill-rule:nonzero;fill:rgb(0%,0%,0%);fill-opacity:1;" d="M 151.800781 120.4375 C 145.289062 125.417969 138.78125 125.035156 134.953125 122.738281 C 131.125 120.4375 131.125 119.671875 131.890625 119.671875 C 132.65625 119.671875 133.421875 120.4375 136.484375 121.972656 C 139.546875 123.503906 144.140625 123.503906 151.800781 120.4375 "/>
<path style=" stroke:none;fill-rule:nonzero;fill:rgb(0%,0%,0%);fill-opacity:1;" d="M 136.484375 148.011719 C 128.828125 145.714844 127.296875 147.246094 125 147.246094 L 124.234375 147.246094 L 125 148.777344 C 128.0625 148.777344 129.59375 146.480469 136.484375 148.011719 "/>
<path style=" stroke:none;fill-rule:nonzero;fill:rgb(0%,0%,0%);fill-opacity:1;" d="M 131.890625 160.265625 C 131.890625 156.460938 128.804688 153.371094 125 153.371094 C 121.195312 153.371094 118.109375 156.460938 118.109375 160.265625 C 118.867188 157.074219 121.71875 154.816406 125 154.816406 C 128.28125 154.816406 131.132812 157.074219 131.890625 160.265625 "/>
<path style=" stroke:none;fill-rule:nonzero;fill:rgb(0%,0%,0%);fill-opacity:1;" d="M 107.390625 112.015625 C 112.367188 112.015625 113.515625 113.164062 115.8125 115.078125 C 118.109375 116.992188 119.257812 116.609375 119.640625 116.992188 C 120.023438 117.375 119.640625 118.523438 118.875 118.140625 C 118.109375 117.757812 116.578125 116.992188 114.28125 115.078125 C 111.984375 113.164062 109.6875 113.164062 107.390625 113.164062 C 100.496094 113.164062 96.667969 118.90625 95.902344 118.523438 C 95.136719 118.140625 99.730469 112.015625 107.390625 112.015625 "/>
<path style=" stroke:none;fill-rule:nonzero;fill:rgb(0%,0%,0%);fill-opacity:1;" d="M 98.582031 118.523438 C 103.558594 113.164062 112.75 112.78125 116.578125 118.90625 L 115.046875 118.90625 C 111.21875 112.78125 102.027344 115.460938 101.261719 118.140625 L 101.261719 118.90625 "/>
<path style=" stroke:none;fill-rule:nonzero;fill:rgb(0%,0%,0%);fill-opacity:1;" d="M 104.707031 118.140625 C 104.707031 120.042969 106.25 121.585938 108.15625 121.585938 C 110.058594 121.585938 111.601562 120.042969 111.601562 118.140625 C 111.601562 116.238281 110.058594 114.695312 108.15625 114.695312 C 106.25 114.695312 104.707031 116.238281 104.707031 118.140625 Z M 104.707031 118.140625 "/>
<path style=" stroke:none;fill-rule:nonzero;fill:rgb(0%,0%,0%);fill-opacity:1;" d="M 116.578125 118.90625 C 112.75 122.355469 104.324219 122.738281 98.582031 118.523438 L 101.261719 118.140625 C 105.089844 122.355469 111.21875 121.972656 115.046875 118.90625 L 115.046875 118.140625 "/>
<path style=" stroke:none;fill-rule:nonzero;fill:rgb(0%,0%,0%);fill-opacity:1;" d="M 98.199219 120.4375 C 104.707031 125.417969 111.21875 125.035156 115.046875 122.738281 C 118.875 120.4375 118.875 119.671875 118.109375 119.671875 C 117.34375 119.671875 116.578125 120.4375 113.515625 121.972656 C 110.453125 123.503906 105.855469 123.503906 98.199219 120.4375 "/>
<path style=" stroke:none;fill-rule:nonzero;fill:rgb(0%,0%,0%);fill-opacity:1;" d="M 112.367188 148.011719 C 120.789062 147.246094 118.109375 152.222656 125 152.222656 L 125.765625 152.222656 L 125 153.371094 C 116.578125 153.371094 120.40625 148.777344 112.367188 148.011719 "/>
<path style=" stroke:none;fill-rule:nonzero;fill:rgb(0%,0%,0%);fill-opacity:1;" d="M 156.394531 114.3125 C 147.585938 106.652344 136.484375 105.503906 130.359375 111.246094 C 125.914062 117.195312 126.308594 124.195312 131.507812 131.542969 C 131.125 131.542969 130.359375 131.925781 129.976562 132.308594 C 126.117188 124.957031 125.453125 117.382812 128.0625 110.480469 C 136.484375 103.589844 147.96875 102.824219 156.394531 114.3125 "/>
<path style=" stroke:none;fill-rule:nonzero;fill:rgb(0%,0%,0%);fill-opacity:1;" d="M 133.039062 131.925781 C 134.125 132.3125 134.753906 133.441406 134.515625 134.566406 C 134.277344 135.695312 133.246094 136.46875 132.097656 136.382812 C 130.949219 136.296875 130.042969 135.375 129.976562 134.226562 C 129.59375 134.992188 128.0625 137.289062 125 137.289062 L 124.234375 137.289062 L 125 138.4375 C 125.765625 138.4375 128.0625 138.4375 129.59375 137.289062 C 130.484375 138.566406 132.121094 139.089844 133.589844 138.5625 C 135.054688 138.03125 135.984375 136.585938 135.855469 135.035156 C 135.726562 133.480469 134.570312 132.207031 133.039062 131.925781 "/>
<path style=" stroke:none;fill-rule:nonzero;fill:rgb(0%,0%,0%);fill-opacity:1;" d="M 137.632812 148.011719 C 134.1875 145.714844 132.65625 142.265625 128.828125 142.265625 C 128.0625 142.265625 126.53125 142.648438 125 143.417969 L 124.234375 143.417969 L 125 144.566406 C 126.53125 144.566406 128.828125 142.648438 131.507812 144.183594 C 134.1875 145.714844 135.71875 147.246094 137.632812 148.011719 "/>
<path style=" stroke:none;fill-rule:nonzero;fill:rgb(0%,0%,0%);fill-opacity:1;" d="M 137.632812 148.011719 C 129.210938 147.246094 131.890625 152.222656 125 152.222656 L 124.234375 152.222656 L 125 153.371094 C 133.421875 153.371094 129.59375 148.777344 137.632812 148.011719 "/>
<path style=" stroke:none;fill-rule:nonzero;fill:rgb(0%,0%,0%);fill-opacity:1;" d="M 93.605469 114.3125 C 102.410156 106.652344 113.515625 105.503906 119.640625 111.246094 C 124.085938 117.195312 123.691406 124.195312 118.492188 131.542969 C 118.875 131.542969 119.640625 131.925781 120.023438 132.308594 C 123.882812 124.957031 124.546875 117.382812 121.9375 110.480469 C 113.515625 103.589844 102.027344 102.824219 93.605469 114.3125 "/>
<path style=" stroke:none;fill-rule:nonzero;fill:rgb(0%,0%,0%);fill-opacity:1;" d="M 116.960938 131.925781 C 115.875 132.3125 115.242188 133.441406 115.480469 134.566406 C 115.71875 135.695312 116.753906 136.46875 117.902344 136.382812 C 119.050781 136.296875 119.957031 135.375 120.023438 134.226562 C 120.40625 134.992188 121.9375 137.289062 125 137.289062 L 125.765625 137.289062 L 125 138.4375 C 124.234375 138.4375 121.9375 138.4375 120.40625 137.289062 C 119.515625 138.566406 117.878906 139.089844 116.410156 138.5625 C 114.945312 138.03125 114.015625 136.585938 114.144531 135.035156 C 114.273438 133.480469 115.425781 132.207031 116.960938 131.925781 "/>
<path style=" stroke:none;fill-rule:nonzero;fill:rgb(0%,0%,0%);fill-opacity:1;" d="M 112.367188 148.011719 C 115.8125 145.714844 117.34375 142.265625 121.171875 142.265625 C 121.9375 142.265625 123.46875 142.648438 125 143.417969 L 125.765625 143.417969 L 125 144.566406 C 123.46875 144.566406 121.171875 142.648438 118.492188 144.183594 C 115.8125 145.714844 114.28125 147.246094 112.367188 148.011719 "/>
<path style=" stroke:none;fill-rule:nonzero;fill:rgb(0%,0%,0%);fill-opacity:1;" d="M 113.515625 148.011719 C 121.171875 145.714844 122.703125 147.246094 125 147.246094 L 125.765625 147.246094 L 125 148.777344 C 121.9375 148.777344 120.40625 146.480469 113.515625 148.011719 "/>
<path style=" stroke:none;fill-rule:nonzero;fill:rgb(0%,0%,0%);fill-opacity:1;" d="M 118.109375 160.265625 C 118.109375 156.460938 121.195312 153.371094 125 153.371094 C 128.804688 153.371094 131.890625 156.460938 131.890625 160.265625 C 131.132812 157.074219 128.28125 154.816406 125 154.816406 C 121.71875 154.816406 118.867188 157.074219 118.109375 160.265625 "/>
</g>
</svg>
