<?xml version="1.0" encoding="UTF-8"?>
<svg xmlns="http://www.w3.org/2000/svg" xmlns:xlink="http://www.w3.org/1999/xlink" width="250px" height="px" viewBox="0 0 250 250" version="1.1">
<g id="surface1">
<path style="fill-rule:nonzero;fill:rgb(98.823529%,74.901961%,28.627451%);fill-opacity:1;stroke-width:1.5;stroke-linecap:butt;stroke-linejoin:miter;stroke:rgb(51.764706%,20.784314%,6.666667%);stroke-opacity:1;stroke-miterlimit:4;" d="M -8.0025 0 L -2.000625 159.498281 C -2.000625 159.498281 -2.000625 162.499219 0 162.499219 C 2.000625 162.499219 2.000625 159.498281 2.000625 159.498281 L 8.0025 0 " transform="matrix(0.757576,0,0,0.757576,125,125)"/>
<path style=" stroke:none;fill-rule:nonzero;fill:rgb(51.764706%,20.784314%,6.666667%);fill-opacity:1;" d="M 121.96875 125 L 125 207.953125 L 128.03125 125 "/>
<path style="fill-rule:nonzero;fill:rgb(98.823529%,74.901961%,28.627451%);fill-opacity:1;stroke-width:1.5;stroke-linecap:butt;stroke-linejoin:miter;stroke:rgb(51.764706%,20.784314%,6.666667%);stroke-opacity:1;stroke-miterlimit:4;" d="M -4.501489 53.497844 C -9.498445 74.999 1.502282 89.498929 -3.998477 108.497953 C -9.498207 127.502029 -1.002217 140.501513 -0.000854952 148.501061 C 1.000507 156.500608 -5.001665 160.00016 -3.002551 161.498237 C -0.997356 163.00034 4.999844 158.002163 5.49727 146.998337 C 6.000777 135.998536 -1.500087 131.252438 4.997787 107.998899 C 11.501742 84.749384 1.000705 76.998764 7.999541 56.000627 " transform="matrix(0.742367,0.151036,-0.151036,0.742367,125,125)"/>
<path style=" stroke:none;fill-rule:nonzero;fill:rgb(51.764706%,20.784314%,6.666667%);fill-opacity:1;" d="M 115.496094 167.90625 C 110.097656 183.042969 115.785156 193.089844 108.535156 205.917969 C 116.589844 196.734375 111.28125 184.828125 118.316406 169.253906 "/>
<path style="fill-rule:nonzero;fill:rgb(98.823529%,74.901961%,28.627451%);fill-opacity:1;stroke-width:1.5;stroke-linecap:butt;stroke-linejoin:miter;stroke:rgb(51.764706%,20.784314%,6.666667%);stroke-opacity:1;stroke-miterlimit:4;" d="M -8.0025 0 L -2.000625 159.498281 C -2.000625 159.498281 -2.000625 162.499219 0 162.499219 C 2.000625 162.499219 2.000625 159.498281 2.000625 159.498281 L 8.0025 0 " transform="matrix(-0.757576,0.000000000000000093,-0.000000000000000093,-0.757576,125,125)"/>
<path style=" stroke:none;fill-rule:nonzero;fill:rgb(51.764706%,20.784314%,6.666667%);fill-opacity:1;" d="M 128.03125 125 L 125 42.046875 L 121.96875 125 "/>
<path style="fill-rule:nonzero;fill:rgb(98.823529%,74.901961%,28.627451%);fill-opacity:1;stroke-width:1.5;stroke-linecap:butt;stroke-linejoin:miter;stroke:rgb(51.764706%,20.784314%,6.666667%);stroke-opacity:1;stroke-miterlimit:4;" d="M -4.501489 53.497844 C -9.498445 74.999 1.502282 89.498929 -3.998477 108.497953 C -9.498207 127.502029 -1.002217 140.501513 -0.000854952 148.501061 C 1.000507 156.500608 -5.001665 160.00016 -3.002551 161.498237 C -0.997356 163.00034 4.999844 158.002163 5.49727 146.998337 C 6.000777 135.998536 -1.500087 131.252438 4.997787 107.998899 C 11.501742 84.749384 1.000705 76.998764 7.999541 56.000627 " transform="matrix(-0.742367,-0.151036,0.151036,-0.742367,125,125)"/>
<path style=" stroke:none;fill-rule:nonzero;fill:rgb(51.764706%,20.784314%,6.666667%);fill-opacity:1;" d="M 134.503906 82.09375 C 139.902344 66.957031 134.214844 56.910156 141.464844 44.082031 C 133.410156 53.265625 138.71875 65.171875 131.683594 80.746094 "/>
<path style="fill-rule:nonzero;fill:rgb(98.823529%,74.901961%,28.627451%);fill-opacity:1;stroke-width:1.5;stroke-linecap:butt;stroke-linejoin:miter;stroke:rgb(51.764706%,20.784314%,6.666667%);stroke-opacity:1;stroke-miterlimit:4;" d="M -8.0025 0.000000000000028422 L -2.000625 159.498281 C -2.000625 159.498281 -2.000625 162.499219 -0.000000000000028422 162.499219 C 2.000625 162.499219 2.000625 159.498281 2.000625 159.498281 L 8.0025 0.000000000000028422 " transform="matrix(0.000000000000000046,0.757576,-0.757576,0.000000000000000046,125,125)"/>
<path style=" stroke:none;fill-rule:nonzero;fill:rgb(51.764706%,20.784314%,6.666667%);fill-opacity:1;" d="M 125 121.96875 L 42.046875 125 L 125 128.03125 "/>
<path style="fill-rule:nonzero;fill:rgb(98.823529%,74.901961%,28.627451%);fill-opacity:1;stroke-width:1.5;stroke-linecap:butt;stroke-linejoin:miter;stroke:rgb(51.764706%,20.784314%,6.666667%);stroke-opacity:1;stroke-miterlimit:4;" d="M -4.501489 53.497844 C -9.498445 74.999 1.502282 89.498929 -3.998477 108.497953 C -9.498207 127.502029 -1.002217 140.501513 -0.000854952 148.501061 C 1.000507 156.500608 -5.001665 160.00016 -3.002551 161.498237 C -0.997356 163.00034 4.999844 158.002163 5.49727 146.998337 C 6.000777 135.998536 -1.500087 131.252438 4.997787 107.998899 C 11.501742 84.749384 1.000705 76.998764 7.999541 56.000627 " transform="matrix(-0.151036,0.742367,-0.742367,-0.151036,125,125)"/>
<path style=" stroke:none;fill-rule:nonzero;fill:rgb(51.764706%,20.784314%,6.666667%);fill-opacity:1;" d="M 82.09375 115.496094 C 66.957031 110.097656 56.910156 115.785156 44.082031 108.535156 C 53.265625 116.589844 65.171875 111.28125 80.746094 118.316406 "/>
<path style="fill-rule:nonzero;fill:rgb(98.823529%,74.901961%,28.627451%);fill-opacity:1;stroke-width:1.5;stroke-linecap:butt;stroke-linejoin:miter;stroke:rgb(51.764706%,20.784314%,6.666667%);stroke-opacity:1;stroke-miterlimit:4;" d="M -8.0025 -0.000000000000028422 L -2.000625 159.498281 C -2.000625 159.498281 -2.000625 162.499219 -0.000000000000028422 162.499219 C 2.000625 162.499219 2.000625 159.498281 2.000625 159.498281 L 8.0025 -0.000000000000028422 " transform="matrix(-0.000000000000000139,-0.757576,0.757576,-0.000000000000000139,125,125)"/>
<path style=" stroke:none;fill-rule:nonzero;fill:rgb(51.764706%,20.784314%,6.666667%);fill-opacity:1;" d="M 125 128.03125 L 207.953125 125 L 125 121.96875 "/>
<path style="fill-rule:nonzero;fill:rgb(98.823529%,74.901961%,28.627451%);fill-opacity:1;stroke-width:1.5;stroke-linecap:butt;stroke-linejoin:miter;stroke:rgb(51.764706%,20.784314%,6.666667%);stroke-opacity:1;stroke-miterlimit:4;" d="M -4.501489 53.497844 C -9.498445 74.999 1.502282 89.498929 -3.998477 108.497953 C -9.498207 127.502029 -1.002217 140.501513 -0.000854952 148.501061 C 1.000507 156.500608 -5.001665 160.00016 -3.002551 161.498237 C -0.997356 163.00034 4.999844 158.002163 5.49727 146.998337 C 6.000777 135.998536 -1.500087 131.252438 4.997787 107.998899 C 11.501742 84.749384 1.000705 76.998764 7.999541 56.000627 " transform="matrix(0.151036,-0.742367,0.742367,0.151036,125,125)"/>
<path style=" stroke:none;fill-rule:nonzero;fill:rgb(51.764706%,20.784314%,6.666667%);fill-opacity:1;" d="M 167.90625 134.503906 C 183.042969 139.902344 193.089844 134.214844 205.917969 141.464844 C 196.734375 133.410156 184.828125 138.71875 169.253906 131.683594 "/>
<path style="fill-rule:nonzero;fill:rgb(98.823529%,74.901961%,28.627451%);fill-opacity:1;stroke-width:1.5;stroke-linecap:butt;stroke-linejoin:miter;stroke:rgb(51.764706%,20.784314%,6.666667%);stroke-opacity:1;stroke-miterlimit:4;" d="M -7.999366 -0.00000000000001055 L -1.998019 159.498762 C -1.998019 159.498762 -2.001665 162.499436 0 162.503082 C 2.001665 162.499436 1.998019 159.498762 1.998019 159.498762 L 7.999366 0.000000000000003661 " transform="matrix(0.535687,0.535687,-0.535687,0.535687,125,125)"/>
<path style=" stroke:none;fill-rule:nonzero;fill:rgb(51.764706%,20.784314%,6.666667%);fill-opacity:1;" d="M 122.855469 122.855469 L 66.34375 183.65625 L 127.144531 127.144531 "/>
<path style="fill-rule:nonzero;fill:rgb(98.823529%,74.901961%,28.627451%);fill-opacity:1;stroke-width:1.5;stroke-linecap:butt;stroke-linejoin:miter;stroke:rgb(51.764706%,20.784314%,6.666667%);stroke-opacity:1;stroke-miterlimit:4;" d="M -4.500361 53.500456 C -9.498724 74.999914 1.499615 89.501768 -4.000433 108.498795 C -9.499027 127.502968 -0.998333 140.500067 0.000672315 148.500991 C 0.999678 156.501915 -5.000835 159.99981 -2.999454 161.49763 C -1.00092 162.99975 4.998897 157.998828 5.500135 147.0026 C 5.999918 135.999227 -1.499514 131.25188 4.998926 107.99987 C 11.501665 84.750707 0.999088 77.001544 7.999801 55.998837 " transform="matrix(0.418134,0.631732,-0.631732,0.418134,125,125)"/>
<path style=" stroke:none;fill-rule:nonzero;fill:rgb(51.764706%,20.784314%,6.666667%);fill-opacity:1;" d="M 87.941406 148.621094 C 73.421875 155.503906 70.335938 166.632812 56.140625 170.578125 C 68.332031 169.777344 72.992188 157.605469 88.980469 151.566406 "/>
<path style="fill-rule:nonzero;fill:rgb(98.823529%,74.901961%,28.627451%);fill-opacity:1;stroke-width:1.5;stroke-linecap:butt;stroke-linejoin:miter;stroke:rgb(51.764706%,20.784314%,6.666667%);stroke-opacity:1;stroke-miterlimit:4;" d="M -7.999366 0.000000000000003229 L -1.998019 159.498762 C -1.998019 159.498762 -2.001665 162.499436 -0.000000000000056843 162.503082 C 2.001665 162.499436 1.998019 159.498762 1.998019 159.498762 L 7.999366 0.00000000000001744 " transform="matrix(-0.535687,-0.535687,0.535687,-0.535687,125,125)"/>
<path style=" stroke:none;fill-rule:nonzero;fill:rgb(51.764706%,20.784314%,6.666667%);fill-opacity:1;" d="M 127.144531 127.144531 L 183.65625 66.34375 L 122.855469 122.855469 "/>
<path style="fill-rule:nonzero;fill:rgb(98.823529%,74.901961%,28.627451%);fill-opacity:1;stroke-width:1.5;stroke-linecap:butt;stroke-linejoin:miter;stroke:rgb(51.764706%,20.784314%,6.666667%);stroke-opacity:1;stroke-miterlimit:4;" d="M -4.500361 53.500456 C -9.498724 74.999914 1.499615 89.501768 -4.000433 108.498795 C -9.499027 127.502968 -0.998333 140.500067 0.000672315 148.500991 C 0.999678 156.501915 -5.000835 159.99981 -2.999454 161.49763 C -1.00092 162.99975 4.998897 157.998828 5.500135 147.0026 C 5.999918 135.999227 -1.499514 131.25188 4.998926 107.99987 C 11.501665 84.750707 0.999088 77.001544 7.999801 55.998837 " transform="matrix(-0.418134,-0.631732,0.631732,-0.418134,125,125)"/>
<path style=" stroke:none;fill-rule:nonzero;fill:rgb(51.764706%,20.784314%,6.666667%);fill-opacity:1;" d="M 162.058594 101.378906 C 176.578125 94.496094 179.664062 83.367188 193.859375 79.421875 C 181.667969 80.222656 177.007812 92.394531 161.019531 98.433594 "/>
<path style="fill-rule:nonzero;fill:rgb(98.823529%,74.901961%,28.627451%);fill-opacity:1;stroke-width:1.5;stroke-linecap:butt;stroke-linejoin:miter;stroke:rgb(51.764706%,20.784314%,6.666667%);stroke-opacity:1;stroke-miterlimit:4;" d="M -7.999366 0 L -1.998019 159.498762 C -1.998019 159.498762 -2.001665 162.499436 -0.000000000000017656 162.503082 C 2.001665 162.499436 1.998019 159.498762 1.998019 159.498762 L 7.999366 0.000000000000028422 " transform="matrix(-0.535687,0.535687,-0.535687,-0.535687,125,125)"/>
<path style=" stroke:none;fill-rule:nonzero;fill:rgb(51.764706%,20.784314%,6.666667%);fill-opacity:1;" d="M 127.144531 122.855469 L 66.34375 66.34375 L 122.855469 127.144531 "/>
<path style="fill-rule:nonzero;fill:rgb(98.823529%,74.901961%,28.627451%);fill-opacity:1;stroke-width:1.5;stroke-linecap:butt;stroke-linejoin:miter;stroke:rgb(51.764706%,20.784314%,6.666667%);stroke-opacity:1;stroke-miterlimit:4;" d="M -4.500361 53.500456 C -9.498724 74.999914 1.499615 89.501768 -4.000433 108.498795 C -9.499027 127.502968 -0.998333 140.500067 0.000672315 148.500991 C 0.999678 156.501915 -5.000835 159.99981 -2.999454 161.49763 C -1.00092 162.99975 4.998897 157.998828 5.500135 147.0026 C 5.999918 135.999227 -1.499514 131.25188 4.998926 107.99987 C 11.501665 84.750707 0.999088 77.001544 7.999801 55.998837 " transform="matrix(-0.631732,0.418134,-0.418134,-0.631732,125,125)"/>
<path style=" stroke:none;fill-rule:nonzero;fill:rgb(51.764706%,20.784314%,6.666667%);fill-opacity:1;" d="M 101.378906 87.941406 C 94.496094 73.421875 83.367188 70.335938 79.421875 56.140625 C 80.222656 68.332031 92.394531 72.992188 98.433594 88.980469 "/>
<path style="fill-rule:nonzero;fill:rgb(98.823529%,74.901961%,28.627451%);fill-opacity:1;stroke-width:1.5;stroke-linecap:butt;stroke-linejoin:miter;stroke:rgb(51.764706%,20.784314%,6.666667%);stroke-opacity:1;stroke-miterlimit:4;" d="M -7.999366 0 L -1.998019 159.498762 C -1.998019 159.498762 -2.001665 162.499436 -0.000000000000039404 162.503082 C 2.001665 162.499436 1.998019 159.498762 1.998019 159.498762 L 7.999366 0.000000000000028422 " transform="matrix(0.535687,-0.535687,0.535687,0.535687,125,125)"/>
<path style=" stroke:none;fill-rule:nonzero;fill:rgb(51.764706%,20.784314%,6.666667%);fill-opacity:1;" d="M 122.855469 127.144531 L 183.65625 183.65625 L 127.144531 122.855469 "/>
<path style="fill-rule:nonzero;fill:rgb(98.823529%,74.901961%,28.627451%);fill-opacity:1;stroke-width:1.5;stroke-linecap:butt;stroke-linejoin:miter;stroke:rgb(51.764706%,20.784314%,6.666667%);stroke-opacity:1;stroke-miterlimit:4;" d="M -4.500361 53.500456 C -9.498724 74.999914 1.499615 89.501768 -4.000433 108.498795 C -9.499027 127.502968 -0.998333 140.500067 0.000672315 148.500991 C 0.999678 156.501915 -5.000835 159.99981 -2.999454 161.49763 C -1.00092 162.99975 4.998897 157.998828 5.500135 147.0026 C 5.999918 135.999227 -1.499514 131.25188 4.998926 107.99987 C 11.501665 84.750707 0.999088 77.001544 7.999801 55.998837 " transform="matrix(0.631732,-0.418134,0.418134,0.631732,125,125)"/>
<path style=" stroke:none;fill-rule:nonzero;fill:rgb(51.764706%,20.784314%,6.666667%);fill-opacity:1;" d="M 148.621094 162.058594 C 155.503906 176.578125 166.632812 179.664062 170.578125 193.859375 C 169.777344 181.667969 157.605469 177.007812 151.566406 161.019531 "/>
<path style="fill-rule:nonzero;fill:rgb(98.823529%,74.901961%,28.627451%);fill-opacity:1;stroke-width:1.5;stroke-linecap:butt;stroke-linejoin:miter;stroke:rgb(51.764706%,20.784314%,6.666667%);stroke-opacity:1;stroke-miterlimit:4;" d="M -7.998547 -0.00205778 L -2.00034 159.498808 C -2.00034 159.498808 -2.00107 162.501734 0.00115322 162.498387 C 2.000586 162.501776 2.001315 159.498851 2.001315 159.498851 L 7.998547 0.00205778 " transform="matrix(0.699909,0.289912,-0.289912,0.699909,125,125)"/>
<path style=" stroke:none;fill-rule:nonzero;fill:rgb(51.764706%,20.784314%,6.666667%);fill-opacity:1;" d="M 122.199219 123.839844 L 93.253906 201.640625 L 127.800781 126.160156 "/>
<path style="fill-rule:nonzero;fill:rgb(98.823529%,74.901961%,28.627451%);fill-opacity:1;stroke-width:1.5;stroke-linecap:butt;stroke-linejoin:miter;stroke:rgb(51.764706%,20.784314%,6.666667%);stroke-opacity:1;stroke-miterlimit:4;" d="M -4.501447 53.501785 C -9.500662 74.997599 1.500952 89.500871 -4.000867 108.499576 C -9.499803 127.502557 -0.999001 140.502012 -0.00185802 148.499499 C 0.998168 156.50126 -5.000796 160.000291 -3.000545 161.499665 C -1.000295 162.999038 5.000565 157.999814 5.500248 147.002446 C 6.001322 135.997919 -1.499538 131.249065 4.998966 108.001839 C 11.501745 84.75173 1.000016 77.001582 7.998325 55.998351 " transform="matrix(0.628059,0.423631,-0.423631,0.628059,125,125)"/>
<path style=" stroke:none;fill-rule:nonzero;fill:rgb(51.764706%,20.784314%,6.666667%);fill-opacity:1;" d="M 99.800781 161.003906 C 89.019531 172.921875 90.429688 184.382812 78.824219 193.457031 C 89.78125 188.054688 89.429688 175.027344 101.890625 163.328125 "/>
<path style="fill-rule:nonzero;fill:rgb(98.823529%,74.901961%,28.627451%);fill-opacity:1;stroke-width:1.5;stroke-linecap:butt;stroke-linejoin:miter;stroke:rgb(51.764706%,20.784314%,6.666667%);stroke-opacity:1;stroke-miterlimit:4;" d="M -7.998547 -0.00205778 L -2.00034 159.498808 C -2.00034 159.498808 -2.00107 162.501734 0.00115322 162.498387 C 2.000586 162.501776 2.001315 159.498851 2.001315 159.498851 L 7.998547 0.00205778 " transform="matrix(-0.699909,-0.289912,0.289912,-0.699909,125,125)"/>
<path style=" stroke:none;fill-rule:nonzero;fill:rgb(51.764706%,20.784314%,6.666667%);fill-opacity:1;" d="M 127.800781 126.160156 L 156.746094 48.359375 L 122.199219 123.839844 "/>
<path style="fill-rule:nonzero;fill:rgb(98.823529%,74.901961%,28.627451%);fill-opacity:1;stroke-width:1.5;stroke-linecap:butt;stroke-linejoin:miter;stroke:rgb(51.764706%,20.784314%,6.666667%);stroke-opacity:1;stroke-miterlimit:4;" d="M -4.501447 53.501785 C -9.500662 74.997599 1.500952 89.500871 -4.000867 108.499576 C -9.499803 127.502557 -0.999001 140.502012 -0.00185802 148.499499 C 0.998168 156.50126 -5.000796 160.000291 -3.000545 161.499665 C -1.000295 162.999038 5.000565 157.999814 5.500248 147.002446 C 6.001322 135.997919 -1.499538 131.249065 4.998966 108.001839 C 11.501745 84.75173 1.000016 77.001582 7.998325 55.998351 " transform="matrix(-0.628059,-0.423631,0.423631,-0.628059,125,125)"/>
<path style=" stroke:none;fill-rule:nonzero;fill:rgb(51.764706%,20.784314%,6.666667%);fill-opacity:1;" d="M 150.199219 88.996094 C 160.980469 77.078125 159.570312 65.617188 171.175781 56.542969 C 160.21875 61.945312 160.570312 74.972656 148.109375 86.671875 "/>
<path style="fill-rule:nonzero;fill:rgb(98.823529%,74.901961%,28.627451%);fill-opacity:1;stroke-width:1.5;stroke-linecap:butt;stroke-linejoin:miter;stroke:rgb(51.764706%,20.784314%,6.666667%);stroke-opacity:1;stroke-miterlimit:4;" d="M -7.998547 -0.00205778 L -2.00034 159.498808 C -2.00034 159.498808 -2.00107 162.501734 0.00115322 162.498387 C 2.000586 162.501776 2.001315 159.498851 2.001315 159.498851 L 7.998547 0.00205778 " transform="matrix(-0.289912,0.699909,-0.699909,-0.289912,125,125)"/>
<path style=" stroke:none;fill-rule:nonzero;fill:rgb(51.764706%,20.784314%,6.666667%);fill-opacity:1;" d="M 126.160156 122.199219 L 48.359375 93.253906 L 123.839844 127.800781 "/>
<path style="fill-rule:nonzero;fill:rgb(98.823529%,74.901961%,28.627451%);fill-opacity:1;stroke-width:1.5;stroke-linecap:butt;stroke-linejoin:miter;stroke:rgb(51.764706%,20.784314%,6.666667%);stroke-opacity:1;stroke-miterlimit:4;" d="M -4.501447 53.501785 C -9.500662 74.997599 1.500952 89.500871 -4.000867 108.499576 C -9.499803 127.502557 -0.999001 140.502012 -0.00185802 148.499499 C 0.998168 156.50126 -5.000796 160.000291 -3.000545 161.499665 C -1.000295 162.999038 5.000565 157.999814 5.500248 147.002446 C 6.001322 135.997919 -1.499538 131.249065 4.998966 108.001839 C 11.501745 84.75173 1.000016 77.001582 7.998325 55.998351 " transform="matrix(-0.423631,0.628059,-0.628059,-0.423631,125,125)"/>
<path style=" stroke:none;fill-rule:nonzero;fill:rgb(51.764706%,20.784314%,6.666667%);fill-opacity:1;" d="M 88.996094 99.800781 C 77.078125 89.019531 65.617188 90.429688 56.542969 78.824219 C 61.945312 89.78125 74.972656 89.429688 86.671875 101.890625 "/>
<path style="fill-rule:nonzero;fill:rgb(98.823529%,74.901961%,28.627451%);fill-opacity:1;stroke-width:1.5;stroke-linecap:butt;stroke-linejoin:miter;stroke:rgb(51.764706%,20.784314%,6.666667%);stroke-opacity:1;stroke-miterlimit:4;" d="M -7.998547 -0.00205778 L -2.00034 159.498808 C -2.00034 159.498808 -2.00107 162.501734 0.00115322 162.498387 C 2.000586 162.501776 2.001315 159.498851 2.001315 159.498851 L 7.998547 0.00205778 " transform="matrix(0.289912,-0.699909,0.699909,0.289912,125,125)"/>
<path style=" stroke:none;fill-rule:nonzero;fill:rgb(51.764706%,20.784314%,6.666667%);fill-opacity:1;" d="M 123.839844 127.800781 L 201.640625 156.746094 L 126.160156 122.199219 "/>
<path style="fill-rule:nonzero;fill:rgb(98.823529%,74.901961%,28.627451%);fill-opacity:1;stroke-width:1.5;stroke-linecap:butt;stroke-linejoin:miter;stroke:rgb(51.764706%,20.784314%,6.666667%);stroke-opacity:1;stroke-miterlimit:4;" d="M -4.501447 53.501785 C -9.500662 74.997599 1.500952 89.500871 -4.000867 108.499576 C -9.499803 127.502557 -0.999001 140.502012 -0.00185802 148.499499 C 0.998168 156.50126 -5.000796 160.000291 -3.000545 161.499665 C -1.000295 162.999038 5.000565 157.999814 5.500248 147.002446 C 6.001322 135.997919 -1.499538 131.249065 4.998966 108.001839 C 11.501745 84.75173 1.000016 77.001582 7.998325 55.998351 " transform="matrix(0.423631,-0.628059,0.628059,0.423631,125,125)"/>
<path style=" stroke:none;fill-rule:nonzero;fill:rgb(51.764706%,20.784314%,6.666667%);fill-opacity:1;" d="M 161.003906 150.199219 C 172.921875 160.980469 184.382812 159.570312 193.457031 171.175781 C 188.054688 160.21875 175.027344 160.570312 163.328125 148.109375 "/>
<path style="fill-rule:nonzero;fill:rgb(98.823529%,74.901961%,28.627451%);fill-opacity:1;stroke-width:1.5;stroke-linecap:butt;stroke-linejoin:miter;stroke:rgb(51.764706%,20.784314%,6.666667%);stroke-opacity:1;stroke-miterlimit:4;" d="M -7.998547 0.00205778 L -2.001315 159.498851 C -2.001315 159.498851 -2.000586 162.501776 -0.00115322 162.498387 C 2.00107 162.501734 2.00034 159.498808 2.00034 159.498808 L 7.998547 -0.00205778 " transform="matrix(0.289912,0.699909,-0.699909,0.289912,125,125)"/>
<path style=" stroke:none;fill-rule:nonzero;fill:rgb(51.764706%,20.784314%,6.666667%);fill-opacity:1;" d="M 123.839844 122.199219 L 48.359375 156.746094 L 126.160156 127.800781 "/>
<path style="fill-rule:nonzero;fill:rgb(98.823529%,74.901961%,28.627451%);fill-opacity:1;stroke-width:1.5;stroke-linecap:butt;stroke-linejoin:miter;stroke:rgb(51.764706%,20.784314%,6.666667%);stroke-opacity:1;stroke-miterlimit:4;" d="M -4.500826 53.501679 C -9.49937 75.001358 1.502456 89.499636 -3.99803 108.501238 C -9.498516 127.50284 -0.999531 140.500833 -0.00164863 148.5004 C 1.001295 156.500951 -4.999687 159.998927 -3.001444 161.500931 C -0.997156 162.998857 5.001764 157.998191 5.500481 147.001307 C 6.000182 135.999361 -1.501608 131.247682 4.997268 108.001567 C 11.502191 84.751374 1.001022 77.000406 7.99845 55.999577 " transform="matrix(0.144552,0.743657,-0.743657,0.144552,125,125)"/>
<path style=" stroke:none;fill-rule:nonzero;fill:rgb(51.764706%,20.784314%,6.666667%);fill-opacity:1;" d="M 81.722656 132.640625 C 65.671875 133.445312 58.566406 142.542969 43.941406 140.757812 C 55.507812 144.683594 64.476562 135.222656 81.558594 135.757812 "/>
<path style="fill-rule:nonzero;fill:rgb(98.823529%,74.901961%,28.627451%);fill-opacity:1;stroke-width:1.5;stroke-linecap:butt;stroke-linejoin:miter;stroke:rgb(51.764706%,20.784314%,6.666667%);stroke-opacity:1;stroke-miterlimit:4;" d="M -7.998547 0.00205778 L -2.001315 159.498851 C -2.001315 159.498851 -2.000586 162.501776 -0.00115322 162.498387 C 2.00107 162.501734 2.00034 159.498808 2.00034 159.498808 L 7.998547 -0.00205778 " transform="matrix(-0.289912,-0.699909,0.699909,-0.289912,125,125)"/>
<path style=" stroke:none;fill-rule:nonzero;fill:rgb(51.764706%,20.784314%,6.666667%);fill-opacity:1;" d="M 126.160156 127.800781 L 201.640625 93.253906 L 123.839844 122.199219 "/>
<path style="fill-rule:nonzero;fill:rgb(98.823529%,74.901961%,28.627451%);fill-opacity:1;stroke-width:1.5;stroke-linecap:butt;stroke-linejoin:miter;stroke:rgb(51.764706%,20.784314%,6.666667%);stroke-opacity:1;stroke-miterlimit:4;" d="M -4.500826 53.501679 C -9.49937 75.001358 1.502456 89.499636 -3.99803 108.501238 C -9.498516 127.50284 -0.999531 140.500833 -0.00164863 148.5004 C 1.001295 156.500951 -4.999687 159.998927 -3.001444 161.500931 C -0.997156 162.998857 5.001764 157.998191 5.500481 147.001307 C 6.000182 135.999361 -1.501608 131.247682 4.997268 108.001567 C 11.502191 84.751374 1.001022 77.000406 7.99845 55.999577 " transform="matrix(-0.144552,-0.743657,0.743657,-0.144552,125,125)"/>
<path style=" stroke:none;fill-rule:nonzero;fill:rgb(51.764706%,20.784314%,6.666667%);fill-opacity:1;" d="M 168.277344 117.359375 C 184.328125 116.554688 191.433594 107.457031 206.058594 109.242188 C 194.492188 105.316406 185.523438 114.777344 168.441406 114.242188 "/>
<path style="fill-rule:nonzero;fill:rgb(98.823529%,74.901961%,28.627451%);fill-opacity:1;stroke-width:1.5;stroke-linecap:butt;stroke-linejoin:miter;stroke:rgb(51.764706%,20.784314%,6.666667%);stroke-opacity:1;stroke-miterlimit:4;" d="M -7.998547 0.00205778 L -2.001315 159.498851 C -2.001315 159.498851 -2.000586 162.501776 -0.00115322 162.498387 C 2.00107 162.501734 2.00034 159.498808 2.00034 159.498808 L 7.998547 -0.00205778 " transform="matrix(-0.699909,0.289912,-0.289912,-0.699909,125,125)"/>
<path style=" stroke:none;fill-rule:nonzero;fill:rgb(51.764706%,20.784314%,6.666667%);fill-opacity:1;" d="M 127.800781 123.839844 L 93.253906 48.359375 L 122.199219 126.160156 "/>
<path style="fill-rule:nonzero;fill:rgb(98.823529%,74.901961%,28.627451%);fill-opacity:1;stroke-width:1.5;stroke-linecap:butt;stroke-linejoin:miter;stroke:rgb(51.764706%,20.784314%,6.666667%);stroke-opacity:1;stroke-miterlimit:4;" d="M -4.500826 53.501679 C -9.49937 75.001358 1.502456 89.499636 -3.99803 108.501238 C -9.498516 127.50284 -0.999531 140.500833 -0.00164863 148.5004 C 1.001295 156.500951 -4.999687 159.998927 -3.001444 161.500931 C -0.997156 162.998857 5.001764 157.998191 5.500481 147.001307 C 6.000182 135.999361 -1.501608 131.247682 4.997268 108.001567 C 11.502191 84.751374 1.001022 77.000406 7.99845 55.999577 " transform="matrix(-0.743657,0.144552,-0.144552,-0.743657,125,125)"/>
<path style=" stroke:none;fill-rule:nonzero;fill:rgb(51.764706%,20.784314%,6.666667%);fill-opacity:1;" d="M 117.359375 81.722656 C 116.554688 65.671875 107.457031 58.566406 109.242188 43.941406 C 105.316406 55.507812 114.777344 64.476562 114.242188 81.558594 "/>
<path style="fill-rule:nonzero;fill:rgb(98.823529%,74.901961%,28.627451%);fill-opacity:1;stroke-width:1.5;stroke-linecap:butt;stroke-linejoin:miter;stroke:rgb(51.764706%,20.784314%,6.666667%);stroke-opacity:1;stroke-miterlimit:4;" d="M -7.998547 0.00205778 L -2.001315 159.498851 C -2.001315 159.498851 -2.000586 162.501776 -0.00115322 162.498387 C 2.00107 162.501734 2.00034 159.498808 2.00034 159.498808 L 7.998547 -0.00205778 " transform="matrix(0.699909,-0.289912,0.289912,0.699909,125,125)"/>
<path style=" stroke:none;fill-rule:nonzero;fill:rgb(51.764706%,20.784314%,6.666667%);fill-opacity:1;" d="M 122.199219 126.160156 L 156.746094 201.640625 L 127.800781 123.839844 "/>
<path style="fill-rule:nonzero;fill:rgb(98.823529%,74.901961%,28.627451%);fill-opacity:1;stroke-width:1.5;stroke-linecap:butt;stroke-linejoin:miter;stroke:rgb(51.764706%,20.784314%,6.666667%);stroke-opacity:1;stroke-miterlimit:4;" d="M -4.500826 53.501679 C -9.49937 75.001358 1.502456 89.499636 -3.99803 108.501238 C -9.498516 127.50284 -0.999531 140.500833 -0.00164863 148.5004 C 1.001295 156.500951 -4.999687 159.998927 -3.001444 161.500931 C -0.997156 162.998857 5.001764 157.998191 5.500481 147.001307 C 6.000182 135.999361 -1.501608 131.247682 4.997268 108.001567 C 11.502191 84.751374 1.001022 77.000406 7.99845 55.999577 " transform="matrix(0.743657,-0.144552,0.144552,0.743657,125,125)"/>
<path style=" stroke:none;fill-rule:nonzero;fill:rgb(51.764706%,20.784314%,6.666667%);fill-opacity:1;" d="M 132.640625 168.277344 C 133.445312 184.328125 142.542969 191.433594 140.757812 206.058594 C 144.683594 194.492188 135.222656 185.523438 135.757812 168.441406 "/>
<path style="fill-rule:nonzero;fill:rgb(98.823529%,74.901961%,28.627451%);fill-opacity:1;stroke-width:1;stroke-linecap:butt;stroke-linejoin:miter;stroke:rgb(51.764706%,20.784314%,6.666667%);stroke-opacity:1;stroke-miterlimit:4;" d="M 64.999687 0 C 64.999687 35.897813 35.897813 64.999687 0 64.999687 C -35.897812 64.999687 -64.999687 35.897813 -64.999687 0 C -64.999687 -35.897812 -35.897812 -64.999687 0 -64.999687 C 35.897813 -64.999687 64.999687 -35.897812 64.999687 0 Z M 64.999687 0 " transform="matrix(0.757576,0,0,0.757576,125,125)"/>
<path style=" stroke:none;fill-rule:nonzero;fill:rgb(51.764706%,20.784314%,6.666667%);fill-opacity:1;" d="M 156.0625 114.394531 C 147.347656 106.816406 136.363281 105.683594 130.304688 111.363281 C 125.902344 117.246094 126.296875 124.167969 131.4375 131.4375 C 131.0625 131.4375 130.304688 131.816406 129.925781 132.195312 C 126.105469 124.921875 125.445312 117.429688 128.03125 110.605469 C 136.363281 103.789062 147.726562 103.03125 156.0625 114.394531 "/>
<path style=" stroke:none;fill-rule:nonzero;fill:rgb(51.764706%,20.784314%,6.666667%);fill-opacity:1;" d="M 142.425781 112.121094 C 137.5 112.121094 136.363281 113.257812 134.089844 115.152344 C 131.816406 117.046875 130.683594 116.667969 130.304688 117.046875 C 129.925781 117.425781 130.304688 118.5625 131.0625 118.183594 C 131.816406 117.804688 133.332031 117.046875 135.605469 115.152344 C 137.878906 113.257812 140.152344 113.257812 142.425781 113.257812 C 149.242188 113.257812 153.03125 118.9375 153.789062 118.5625 C 154.546875 118.183594 150 112.121094 142.425781 112.121094 "/>
<path style=" stroke:none;fill-rule:nonzero;fill:rgb(51.764706%,20.784314%,6.666667%);fill-opacity:1;" d="M 151.136719 118.5625 C 146.210938 113.257812 137.121094 112.878906 133.332031 118.9375 L 134.847656 118.9375 C 138.636719 112.878906 147.726562 115.53125 148.484375 118.183594 L 148.484375 118.9375 "/>
<path style=" stroke:none;fill-rule:nonzero;fill:rgb(51.764706%,20.784314%,6.666667%);fill-opacity:1;" d="M 145.074219 118.183594 C 145.074219 120.066406 143.550781 121.589844 141.667969 121.589844 C 139.785156 121.589844 138.257812 120.066406 138.257812 118.183594 C 138.257812 116.300781 139.785156 114.773438 141.667969 114.773438 C 143.550781 114.773438 145.074219 116.300781 145.074219 118.183594 Z M 145.074219 118.183594 "/>
<path style=" stroke:none;fill-rule:nonzero;fill:rgb(51.764706%,20.784314%,6.666667%);fill-opacity:1;" d="M 133.332031 118.9375 C 137.121094 122.347656 145.453125 122.726562 151.136719 118.5625 L 148.484375 118.183594 C 144.695312 122.347656 138.636719 121.96875 134.847656 118.9375 L 134.847656 118.183594 "/>
<path style=" stroke:none;fill-rule:nonzero;fill:rgb(51.764706%,20.784314%,6.666667%);fill-opacity:1;" d="M 151.515625 120.453125 C 145.074219 125.378906 138.636719 125 134.847656 122.726562 C 131.0625 120.453125 131.0625 119.695312 131.816406 119.695312 C 132.574219 119.695312 133.332031 120.453125 136.363281 121.96875 C 139.394531 123.484375 143.9375 123.484375 151.515625 120.453125 "/>
<path style=" stroke:none;fill-rule:nonzero;fill:rgb(51.764706%,20.784314%,6.666667%);fill-opacity:1;" d="M 132.953125 131.816406 C 134.027344 132.199219 134.652344 133.316406 134.417969 134.429688 C 134.179688 135.542969 133.15625 136.3125 132.023438 136.226562 C 130.886719 136.140625 129.988281 135.226562 129.925781 134.089844 C 129.546875 134.847656 128.03125 137.121094 125 137.121094 L 124.242188 137.121094 L 125 138.257812 C 125.757812 138.257812 128.03125 138.257812 129.546875 137.121094 C 130.425781 138.386719 132.046875 138.902344 133.496094 138.378906 C 134.949219 137.855469 135.867188 136.425781 135.738281 134.890625 C 135.613281 133.355469 134.472656 132.09375 132.953125 131.816406 "/>
<path style=" stroke:none;fill-rule:nonzero;fill:rgb(51.764706%,20.784314%,6.666667%);fill-opacity:1;" d="M 137.5 147.726562 C 134.089844 145.453125 132.574219 142.046875 128.789062 142.046875 C 128.03125 142.046875 126.515625 142.425781 125 143.183594 L 124.242188 143.183594 L 125 144.316406 C 126.515625 144.316406 128.789062 142.425781 131.4375 143.9375 C 134.089844 145.453125 135.605469 146.96875 137.5 147.726562 "/>
<path style=" stroke:none;fill-rule:nonzero;fill:rgb(51.764706%,20.784314%,6.666667%);fill-opacity:1;" d="M 136.363281 147.726562 C 128.789062 145.453125 127.273438 146.96875 125 146.96875 L 124.242188 146.96875 L 125 148.484375 C 128.03125 148.484375 129.546875 146.210938 136.363281 147.726562 "/>
<path style=" stroke:none;fill-rule:nonzero;fill:rgb(51.764706%,20.784314%,6.666667%);fill-opacity:1;" d="M 137.5 147.726562 C 129.167969 146.96875 131.816406 151.894531 125 151.894531 L 124.242188 151.894531 L 125 153.03125 C 133.332031 153.03125 129.546875 148.484375 137.5 147.726562 "/>
<path style=" stroke:none;fill-rule:nonzero;fill:rgb(51.764706%,20.784314%,6.666667%);fill-opacity:1;" d="M 131.816406 159.847656 C 131.816406 156.082031 128.765625 153.03125 125 153.03125 C 121.234375 153.03125 118.183594 156.082031 118.183594 159.847656 C 118.929688 156.6875 121.753906 154.460938 125 154.460938 C 128.246094 154.460938 131.070312 156.6875 131.816406 159.847656 "/>
<path style=" stroke:none;fill-rule:nonzero;fill:rgb(51.764706%,20.784314%,6.666667%);fill-opacity:1;" d="M 93.9375 114.394531 C 102.652344 106.816406 113.636719 105.683594 119.695312 111.363281 C 124.097656 117.246094 123.703125 124.167969 118.5625 131.4375 C 118.9375 131.4375 119.695312 131.816406 120.074219 132.195312 C 123.894531 124.921875 124.554688 117.429688 121.96875 110.605469 C 113.636719 103.789062 102.273438 103.03125 93.9375 114.394531 "/>
<path style=" stroke:none;fill-rule:nonzero;fill:rgb(51.764706%,20.784314%,6.666667%);fill-opacity:1;" d="M 107.574219 112.121094 C 112.5 112.121094 113.636719 113.257812 115.910156 115.152344 C 118.183594 117.046875 119.316406 116.667969 119.695312 117.046875 C 120.074219 117.425781 119.695312 118.5625 118.9375 118.183594 C 118.183594 117.804688 116.667969 117.046875 114.394531 115.152344 C 112.121094 113.257812 109.847656 113.257812 107.574219 113.257812 C 100.757812 113.257812 96.96875 118.9375 96.210938 118.5625 C 95.453125 118.183594 100 112.121094 107.574219 112.121094 "/>
<path style=" stroke:none;fill-rule:nonzero;fill:rgb(51.764706%,20.784314%,6.666667%);fill-opacity:1;" d="M 98.863281 118.5625 C 103.789062 113.257812 112.878906 112.878906 116.667969 118.9375 L 115.152344 118.9375 C 111.363281 112.878906 102.273438 115.53125 101.515625 118.183594 L 101.515625 118.9375 "/>
<path style=" stroke:none;fill-rule:nonzero;fill:rgb(51.764706%,20.784314%,6.666667%);fill-opacity:1;" d="M 104.925781 118.183594 C 104.925781 120.066406 106.449219 121.589844 108.332031 121.589844 C 110.214844 121.589844 111.742188 120.066406 111.742188 118.183594 C 111.742188 116.300781 110.214844 114.773438 108.332031 114.773438 C 106.449219 114.773438 104.925781 116.300781 104.925781 118.183594 Z M 104.925781 118.183594 "/>
<path style=" stroke:none;fill-rule:nonzero;fill:rgb(51.764706%,20.784314%,6.666667%);fill-opacity:1;" d="M 116.667969 118.9375 C 112.878906 122.347656 104.546875 122.726562 98.863281 118.5625 L 101.515625 118.183594 C 105.304688 122.347656 111.363281 121.96875 115.152344 118.9375 L 115.152344 118.183594 "/>
<path style=" stroke:none;fill-rule:nonzero;fill:rgb(51.764706%,20.784314%,6.666667%);fill-opacity:1;" d="M 98.484375 120.453125 C 104.925781 125.378906 111.363281 125 115.152344 122.726562 C 118.9375 120.453125 118.9375 119.695312 118.183594 119.695312 C 117.425781 119.695312 116.667969 120.453125 113.636719 121.96875 C 110.605469 123.484375 106.0625 123.484375 98.484375 120.453125 "/>
<path style=" stroke:none;fill-rule:nonzero;fill:rgb(51.764706%,20.784314%,6.666667%);fill-opacity:1;" d="M 117.046875 131.816406 C 115.972656 132.199219 115.347656 133.316406 115.582031 134.429688 C 115.820312 135.542969 116.84375 136.3125 117.976562 136.226562 C 119.113281 136.140625 120.011719 135.226562 120.074219 134.089844 C 120.453125 134.847656 121.96875 137.121094 125 137.121094 L 125.757812 137.121094 L 125 138.257812 C 124.242188 138.257812 121.96875 138.257812 120.453125 137.121094 C 119.574219 138.386719 117.953125 138.902344 116.503906 138.378906 C 115.050781 137.855469 114.132812 136.425781 114.261719 134.890625 C 114.386719 133.355469 115.527344 132.09375 117.046875 131.816406 "/>
<path style=" stroke:none;fill-rule:nonzero;fill:rgb(51.764706%,20.784314%,6.666667%);fill-opacity:1;" d="M 112.5 147.726562 C 115.910156 145.453125 117.425781 142.046875 121.210938 142.046875 C 121.96875 142.046875 123.484375 142.425781 125 143.183594 L 125.757812 143.183594 L 125 144.316406 C 123.484375 144.316406 121.210938 142.425781 118.5625 143.9375 C 115.910156 145.453125 114.394531 146.96875 112.5 147.726562 "/>
<path style=" stroke:none;fill-rule:nonzero;fill:rgb(51.764706%,20.784314%,6.666667%);fill-opacity:1;" d="M 113.636719 147.726562 C 121.210938 145.453125 122.726562 146.96875 125 146.96875 L 125.757812 146.96875 L 125 148.484375 C 121.96875 148.484375 120.453125 146.210938 113.636719 147.726562 "/>
<path style=" stroke:none;fill-rule:nonzero;fill:rgb(51.764706%,20.784314%,6.666667%);fill-opacity:1;" d="M 112.5 147.726562 C 120.832031 146.96875 118.183594 151.894531 125 151.894531 L 125.757812 151.894531 L 125 153.03125 C 116.667969 153.03125 120.453125 148.484375 112.5 147.726562 "/>
<path style=" stroke:none;fill-rule:nonzero;fill:rgb(51.764706%,20.784314%,6.666667%);fill-opacity:1;" d="M 118.183594 159.847656 C 118.183594 156.082031 121.234375 153.03125 125 153.03125 C 128.765625 153.03125 131.816406 156.082031 131.816406 159.847656 C 131.070312 156.6875 128.246094 154.460938 125 154.460938 C 121.753906 154.460938 118.929688 156.6875 118.183594 159.847656 "/>
</g>
</svg>
